# 3ds Max Wavefront OBJ Exporter v0.97b - (c)2007 guruware
# 创建的文件:26.06.2021 09:47:51

mtllib puff.mtl

#
# object Box001
#

v  -401.1487 -309.5805 -45.0138
v  -401.1487 -309.5805 -70.3904
v  418.8513 -309.5805 -70.3904
v  418.8513 -309.5805 -45.0138
v  -401.1487 290.4195 -45.0138
v  418.8513 290.4195 -45.0138
v  418.8513 290.4195 -70.3904
v  -401.1487 290.4195 -70.3904
# 8 vertices

vn 0.0000 -1.0000 -0.0000
vn 0.0000 1.0000 -0.0000
vn 0.0000 0.0000 1.0000
vn 1.0000 0.0000 -0.0000
vn 0.0000 0.0000 -1.0000
vn -1.0000 0.0000 -0.0000
# 6 vertex normals

vt 1.0000 0.0000 0.0000
vt 1.0000 1.0000 0.0000
vt 0.0000 1.0000 0.0000
vt 0.0000 0.0000 0.0000
# 4 texture coords

g Box001
usemtl 01___Default
s 2
f 1/1/1 2/2/1 3/3/1 4/4/1 
s 4
f 5/4/2 6/1/2 7/2/2 8/3/2 
s 8
f 1/4/3 4/1/3 6/2/3 5/3/3 
s 16
f 4/4/4 3/1/4 7/2/4 6/3/4 
s 32
f 3/4/5 2/1/5 8/2/5 7/3/5 
s 64
f 2/4/6 1/1/6 5/2/6 8/3/6 
# 6 polygons

#
# object Rectangle001
#

v  -395.1010 246.6478 0.0001
v  -395.1010 246.6478 -79.9820
v  404.8990 246.6478 -79.9823
v  404.8990 246.6478 -0.0002
v  404.8990 -253.3522 -79.9822
v  404.8990 -253.3522 -0.0001
v  -395.1010 -253.3522 -79.9819
v  -395.1010 -253.3522 0.0002
v  -554.3815 405.9285 -79.9820
v  564.1795 405.9285 -79.9824
v  564.1795 -412.6328 -79.9822
v  -554.3815 -412.6328 -79.9818
v  -554.3815 405.9285 -0.0567
v  564.1795 405.9285 -0.0571
v  564.1795 -412.6328 -0.0569
v  -554.3815 -412.6328 -0.0566
v  -548.7878 400.3347 5.4319
v  558.5858 400.3347 5.4315
v  558.5858 -407.0391 5.4317
v  -548.7878 -407.0391 5.4320
v  -543.1940 394.7409 9.0698
v  552.9920 394.7409 9.0695
v  552.9920 -401.4453 9.0696
v  -543.1940 -401.4453 9.0700
v  -537.6003 389.1472 10.8698
v  547.3983 389.1472 10.8694
v  547.3983 -395.8515 10.8695
v  -537.6003 -395.8515 10.8699
v  -532.0065 383.5533 10.8444
v  541.8045 383.5533 10.8440
v  541.8045 -390.2578 10.8442
v  -532.0065 -390.2578 10.8445
v  -526.4128 377.9596 9.0064
v  536.2108 377.9596 9.0061
v  536.2108 -384.6639 9.0062
v  -526.4128 -384.6639 9.0065
v  -520.8190 372.3658 5.3685
v  530.6169 372.3658 5.3681
v  530.6169 -379.0702 5.3683
v  -520.8190 -379.0702 5.3686
v  -515.2252 366.7720 -0.0567
v  525.0232 366.7720 -0.0571
v  525.0232 -373.4764 -0.0569
v  -515.2252 -373.4764 -0.0566
v  -515.2252 366.7720 -50.2124
v  525.0232 366.7720 -50.2127
v  525.0232 -373.4764 -50.2126
v  -515.2252 -373.4764 -50.2122
v  -504.8201 356.3669 -50.2124
v  514.6180 356.3669 -50.2127
v  514.6180 -363.0712 -50.2126
v  -504.8201 -363.0712 -50.2123
v  -504.8201 356.3669 -29.8949
v  514.6180 356.3669 -29.8952
v  514.6180 -363.0712 -29.8951
v  -504.8201 -363.0712 -29.8948
v  -444.6626 296.2094 -29.8949
v  454.4606 296.2094 -29.8952
v  454.4606 -302.9138 -29.8951
v  -444.6626 -302.9138 -29.8948
v  -444.6420 296.1887 -49.9149
v  454.4399 296.1887 -49.9151
v  454.4399 -302.8931 -49.9151
v  -444.6420 -302.8931 -49.9148
v  -434.0154 285.5621 -49.9033
v  443.8133 285.5621 -49.9036
v  443.8133 -292.2665 -49.9035
v  -434.0154 -292.2665 -49.9032
v  -434.0667 285.6135 0.0036
v  443.8647 285.6135 0.0033
v  443.8647 -292.3179 0.0034
v  -434.0667 -292.3179 0.0037
v  -428.5002 280.0469 5.1493
v  438.2982 280.0469 5.1490
v  438.2982 -286.7513 5.1491
v  -428.5002 -286.7513 5.1493
v  -422.9337 274.4804 8.5795
v  432.7316 274.4804 8.5792
v  432.7316 -281.1848 8.5793
v  -422.9337 -281.1848 8.5796
v  -417.3671 268.9139 10.2944
v  427.1651 268.9139 10.2941
v  427.1651 -275.6183 10.2942
v  -417.3671 -275.6183 10.2945
v  -411.8006 263.3474 10.2939
v  421.5986 263.3474 10.2936
v  421.5986 -270.0518 10.2937
v  -411.8006 -270.0518 10.2940
v  -406.2341 257.7808 8.5780
v  416.0320 257.7808 8.5777
v  416.0320 -264.4852 8.5778
v  -406.2341 -264.4852 8.5781
v  -400.6675 252.2143 5.1467
v  410.4655 252.2143 5.1465
v  410.4655 -258.9187 5.1466
v  -400.6675 -258.9187 5.1468
# 96 vertices

vn 0.0000 -1.0000 0.0000
vn -1.0000 0.0000 0.0000
vn -0.0000 1.0000 -0.0000
vn 1.0000 0.0000 -0.0000
vn -0.0000 -0.0000 -1.0000
vn 0.0000 0.7004 0.7138
vn 0.0000 0.6588 0.7523
vn 0.7004 0.0000 0.7138
vn 0.6588 0.0000 0.7523
vn 0.0000 -0.7004 0.7138
vn 0.0000 -0.6588 0.7523
vn -0.7004 0.0000 0.7138
vn -0.6588 0.0000 0.7523
vn 0.0000 0.4856 0.8742
vn 0.4856 0.0000 0.8742
vn 0.0000 -0.4856 0.8742
vn -0.4856 0.0000 0.8742
vn 0.0000 0.2301 0.9732
vn 0.2301 0.0000 0.9732
vn 0.0000 -0.2301 0.9732
vn -0.2301 0.0000 0.9732
vn 0.0000 -0.0841 0.9965
vn -0.0841 0.0000 0.9965
vn 0.0000 0.0841 0.9965
vn 0.0841 0.0000 0.9965
vn 0.0000 -0.3782 0.9257
vn -0.3782 0.0000 0.9257
vn 0.0000 0.3782 0.9257
vn 0.3782 0.0000 0.9257
vn 0.0000 -0.5920 0.8059
vn -0.5920 0.0000 0.8059
vn 0.0000 0.5920 0.8059
vn 0.5920 0.0000 0.8059
vn 0.0000 -0.6962 0.7178
vn -0.6962 0.0000 0.7178
vn 0.0000 0.6962 0.7178
vn 0.6962 0.0000 0.7178
vn 0.0000 0.0000 1.0000
vn 0.0000 -1.0000 0.0010
vn -1.0000 0.0000 0.0010
vn 0.0000 1.0000 0.0010
vn 1.0000 0.0000 0.0010
vn 0.0000 0.0011 1.0000
vn 0.0011 0.0000 1.0000
vn 0.0000 -0.0011 1.0000
vn -0.0011 0.0000 1.0000
vn -0.0000 1.0000 -0.0010
vn 1.0000 -0.0000 -0.0010
vn -0.0000 -1.0000 -0.0010
vn -1.0000 -0.0000 -0.0010
vn 0.0000 0.6788 0.7343
vn 0.0000 0.6378 0.7702
vn 0.6788 0.0000 0.7343
vn 0.6378 0.0000 0.7702
vn 0.0000 -0.6788 0.7343
vn 0.0000 -0.6378 0.7702
vn -0.6788 0.0000 0.7343
vn -0.6378 0.0000 0.7702
vn 0.0000 0.4672 0.8842
vn 0.4672 0.0000 0.8842
vn 0.0000 -0.4672 0.8842
vn -0.4672 0.0000 0.8842
vn 0.0000 0.2221 0.9750
vn 0.2221 0.0000 0.9750
vn 0.0000 -0.2221 0.9750
vn -0.2221 0.0000 0.9750
vn 0.0000 -0.0759 0.9971
vn -0.0759 0.0000 0.9971
vn 0.0000 0.0759 0.9971
vn 0.0759 0.0000 0.9971
vn 0.0000 -0.3591 0.9333
vn -0.3591 0.0000 0.9333
vn 0.0000 0.3591 0.9333
vn 0.3591 0.0000 0.9333
vn 0.0000 -0.5719 0.8203
vn -0.5719 0.0000 0.8203
vn 0.0000 0.5719 0.8203
vn 0.5719 0.0000 0.8203
vn 0.0000 -0.6789 0.7343
vn -0.6789 0.0000 0.7343
vn 0.0000 0.6789 0.7343
vn 0.6789 0.0000 0.7343
# 82 vertex normals

g Rectangle001
usemtl wire_028089177
s 2
f 9//7 10//7 11//7 12//7 
s 4
f 12//8 11//8 13//8 14//8 
s 8
f 14//9 13//9 15//9 16//9 
s 17
f 16//10 15//10 10//10 9//10 
s 64
f 10//11 17//11 18//11 11//11 
s 128
f 11//11 18//11 19//11 13//11 
s 256
f 13//11 19//11 20//11 15//11 
s 544
f 15//11 20//11 17//11 10//11 
s 2
f 17//9 21//9 22//9 18//9 
s 4
f 18//10 22//10 23//10 19//10 
s 8
f 19//7 23//7 24//7 20//7 
s 17
f 20//8 24//8 21//8 17//8 
s 64
f 21//12 25//13 26//13 22//12 
s 128
f 22//14 26//15 27//15 23//14 
s 256
f 23//16 27//17 28//17 24//16 
s 544
f 24//18 28//19 25//19 21//18 
s 64
f 25//13 29//20 30//20 26//13 
s 128
f 26//15 30//21 31//21 27//15 
s 256
f 27//17 31//22 32//22 28//17 
s 544
f 28//19 32//23 29//23 25//19 
s 64
f 29//20 33//24 34//24 30//20 
s 128
f 30//21 34//25 35//25 31//21 
s 256
f 31//22 35//26 36//26 32//22 
s 544
f 32//23 36//27 33//27 29//23 
s 64
f 33//24 37//28 38//28 34//24 
s 128
f 34//25 38//29 39//29 35//25 
s 256
f 35//26 39//30 40//30 36//26 
s 544
f 36//27 40//31 37//31 33//27 
s 64
f 37//28 41//32 42//32 38//28 
s 128
f 38//29 42//33 43//33 39//29 
s 256
f 39//30 43//34 44//34 40//30 
s 544
f 40//31 44//35 41//35 37//31 
s 64
f 41//32 45//36 46//36 42//32 
s 128
f 42//33 46//37 47//37 43//33 
s 256
f 43//34 47//38 48//38 44//34 
s 544
f 44//35 48//39 45//39 41//35 
s 64
f 45//36 49//40 50//40 46//36 
s 128
f 46//37 50//41 51//41 47//37 
s 256
f 47//38 51//42 52//42 48//38 
s 544
f 48//39 52//43 49//43 45//39 
s 2
f 49//7 53//7 54//7 50//7 
s 4
f 50//8 54//8 55//8 51//8 
s 8
f 51//9 55//9 56//9 52//9 
s 17
f 52//10 56//10 53//10 49//10 
s 64
f 53//44 57//44 58//44 54//44 
s 128
f 54//44 58//44 59//44 55//44 
s 256
f 55//44 59//44 60//44 56//44 
s 544
f 56//44 60//44 57//44 53//44 
s 2
f 57//9 61//9 62//9 58//9 
s 4
f 58//10 62//10 63//10 59//10 
s 8
f 59//7 63//7 64//7 60//7 
s 17
f 60//8 64//8 61//8 57//8 
s 64
f 61//44 65//44 66//44 62//44 
s 128
f 62//44 66//44 67//44 63//44 
s 256
f 63//44 67//44 68//44 64//44 
s 544
f 64//44 68//44 65//44 61//44 
s 2
f 65//45 69//45 70//45 66//45 
s 4
f 66//46 70//46 71//46 67//46 
s 8
f 67//47 71//47 72//47 68//47 
s 17
f 68//48 72//48 69//48 65//48 
s 64
f 69//49 73//49 74//49 70//49 
s 128
f 70//50 74//50 75//50 71//50 
s 256
f 71//51 75//51 76//51 72//51 
s 544
f 72//52 76//52 73//52 69//52 
s 2
f 73//53 77//53 78//53 74//53 
s 4
f 74//54 78//54 79//54 75//54 
s 8
f 75//55 79//55 80//55 76//55 
s 17
f 76//56 80//56 77//56 73//56 
s 64
f 77//57 81//58 82//58 78//57 
s 128
f 78//59 82//60 83//60 79//59 
s 256
f 79//61 83//62 84//62 80//61 
s 544
f 80//63 84//64 81//64 77//63 
s 64
f 81//58 85//65 86//65 82//58 
s 128
f 82//60 86//66 87//66 83//60 
s 256
f 83//62 87//67 88//67 84//62 
s 544
f 84//64 88//68 85//68 81//64 
s 64
f 85//65 89//69 90//69 86//65 
s 128
f 86//66 90//70 91//70 87//66 
s 256
f 87//67 91//71 92//71 88//67 
s 544
f 88//68 92//72 89//72 85//68 
s 64
f 89//69 93//73 94//73 90//69 
s 128
f 90//70 94//74 95//74 91//70 
s 256
f 91//71 95//75 96//75 92//71 
s 544
f 92//72 96//76 93//76 89//72 
s 64
f 93//73 97//77 98//77 94//73 
s 128
f 94//74 98//78 99//78 95//74 
s 256
f 95//75 99//79 100//79 96//75 
s 544
f 96//76 100//80 97//80 93//76 
s 64
f 97//77 101//81 102//81 98//77 
s 128
f 98//78 102//82 103//82 99//78 
s 256
f 99//79 103//83 104//83 100//79 
s 544
f 100//80 104//84 101//84 97//80 
s 64
f 101//81 9//85 12//85 102//81 
s 128
f 102//82 12//86 14//86 103//82 
s 256
f 103//83 14//87 16//87 104//83 
s 544
f 104//84 16//88 9//88 101//84 
# 96 polygons

